<svg xmlns="http://www.w3.org/2000/svg" viewBox="0 0 512 512">
<defs>
<filter id="s"><feDropShadow dx="0" dy="8" stdDeviation="8" flood-opacity=".18"/></filter>
<linearGradient id="ice" x1="0" y1="0" x2="1" y2="1">
<stop stop-color="#eafbff"/><stop offset="1" stop-color="#68bee9"/>
</linearGradient>
<linearGradient id="wat" x1="0" y1="0" x2="0" y2="1">
<stop stop-color="#bcecff"/><stop offset="1" stop-color="#2699dc"/>
</linearGradient>
</defs>
<g transform="translate(-35 95) scale(.55)">
<path d="M120 160 256 105 392 160 392 345 256 407 120 345Z"
 fill="url(#ice)" stroke="#287dad" stroke-width="12"/>
</g>
<path d="M205 260H295" stroke="#174f83" stroke-width="18" stroke-linecap="round"/>
<path d="m278 235 35 25-35 25" fill="none" stroke="#174f83"
 stroke-width="18" stroke-linejoin="round"/>
<circle cx="335" cy="170" r="55" fill="#ffc52c"/>
<path d="M370 370C370 320 405 280 405 235
 455 300 475 335 475 375 475 430 440 455 412 455
 385 455 370 425 370 370Z"
 fill="url(#wat)" stroke="#2789bd" stroke-width="10"/>
</svg>