<svg viewBox="0 0 400 500" xmlns="http://www.w3.org/2000/svg">
<defs>
<linearGradient id="wall" x1="0" y1="0" x2="0" y2="1"><stop offset="0" stop-color="#fdf3e0"/><stop offset="1" stop-color="#f3e2c4"/></linearGradient>
<linearGradient id="floor" x1="0" y1="0" x2="0" y2="1"><stop offset="0" stop-color="#c98a4b"/><stop offset="1" stop-color="#b3753a"/></linearGradient>
<linearGradient id="board" x1="0" y1="0" x2="0" y2="1"><stop offset="0" stop-color="#2f6b43"/><stop offset="1" stop-color="#245533"/></linearGradient>
</defs>
<rect x="0" y="0" width="400" height="340" fill="url(#wall)"/>
<rect x="0" y="340" width="400" height="160" fill="url(#floor)"/>
<g stroke="#9c6531" stroke-width="2" opacity="0.5">
<line x1="0" y1="380" x2="400" y2="380"/><line x1="0" y1="430" x2="400" y2="430"/>
<line x1="80" y1="340" x2="40" y2="500"/><line x1="200" y1="340" x2="200" y2="500"/><line x1="320" y1="340" x2="360" y2="500"/>
</g>
<rect x="20" y="60" width="90" height="100" rx="6" fill="#8fc7ef" stroke="#7a5230" stroke-width="6"/>
<line x1="65" y1="60" x2="65" y2="160" stroke="#7a5230" stroke-width="4"/>
<line x1="20" y1="110" x2="110" y2="110" stroke="#7a5230" stroke-width="4"/>
<circle cx="40" cy="85" r="10" fill="#ffe08a"/>
<rect x="135" y="55" width="200" height="110" rx="8" fill="url(#board)" stroke="#8a5a2b" stroke-width="10"/>
<text x="235" y="115" font-family="Tahoma,Arial" font-size="26" fill="#fff" text-anchor="middle" opacity="0.85">١ ٢ ٣</text>
<circle cx="360" cy="40" r="22" fill="#fff" stroke="#444" stroke-width="3"/>
<line x1="360" y1="40" x2="360" y2="26" stroke="#333" stroke-width="2"/>
<line x1="360" y1="40" x2="372" y2="40" stroke="#333" stroke-width="2"/>
</svg>
