<?xml version="1.0" encoding="iso-8859-1"?>
<!-- Uploaded to: SVG Repo, www.svgrepo.com, Generator: SVG Repo Mixer Tools -->
<svg height="800px" width="800px" version="1.1" id="Layer_1" xmlns="http://www.w3.org/2000/svg" xmlns:xlink="http://www.w3.org/1999/xlink" 
	 viewBox="0 0 297 297" xml:space="preserve">
<g>
	<g>
		<path style="fill:#EB6A0F;" d="M166.213,19.217l26.47,81.465h85.657c18.042,0,25.543,23.087,10.947,33.692l-69.298,50.348
			l26.47,81.465c5.575,17.159-14.064,31.428-28.66,20.823L148.5,236.662L79.202,287.01c-14.596,10.605-34.235-3.664-28.66-20.823
			l26.47-81.465L7.713,134.374c-14.596-10.605-7.095-33.692,10.947-33.692h85.657l26.47-81.465
			C136.362,2.059,160.638,2.059,166.213,19.217z"/>
	</g>
	<g>
		<g>
			<circle style="fill:#7F3705;" cx="53.943" cy="127.152" r="3.69"/>
		</g>
		<g>
			<circle style="fill:#7F3705;" cx="44.595" cy="124.036" r="3.84"/>
		</g>
		<g>
			<circle style="fill:#7F3705;" cx="35.248" cy="120.921" r="2.803"/>
		</g>
		<g>
			<circle style="fill:#7F3705;" cx="25.9" cy="117.805" r="1.727"/>
		</g>
	</g>
	<g>
		<g>
			<circle style="fill:#7F3705;" cx="91.154" cy="238.582" r="3.69"/>
		</g>
		<g>
			<circle style="fill:#7F3705;" cx="85.007" cy="246.283" r="3.84"/>
		</g>
		<g>
			<circle style="fill:#7F3705;" cx="78.861" cy="253.984" r="2.803"/>
		</g>
		<g>
			<circle style="fill:#7F3705;" cx="72.714" cy="261.685" r="1.727"/>
		</g>
	</g>
	<g>
		<g>
			<circle style="fill:#602904;" cx="205.846" cy="238.582" r="3.69"/>
		</g>
		<g>
			<circle style="fill:#602904;" cx="211.993" cy="246.283" r="3.84"/>
		</g>
		<g>
			<circle style="fill:#602904;" cx="218.139" cy="253.984" r="2.803"/>
		</g>
		<g>
			<circle style="fill:#602904;" cx="224.286" cy="261.685" r="1.727"/>
		</g>
	</g>
	<g>
		<g>
			<circle style="fill:#602904;" cx="243.057" cy="127.152" r="3.69"/>
		</g>
		<g>
			<circle style="fill:#602904;" cx="252.405" cy="124.036" r="3.84"/>
		</g>
		<g>
			<circle style="fill:#602904;" cx="261.752" cy="120.921" r="2.803"/>
		</g>
		<g>
			<circle style="fill:#602904;" cx="271.1" cy="117.805" r="1.727"/>
		</g>
	</g>
	<g>
		<path style="fill:#C15308;" d="M278.34,100.682h-85.657l-26.47-81.465c-2.767-8.515-10.138-12.799-17.544-12.863v230.431
			l69.129,50.225c14.596,10.605,34.236-3.664,28.66-20.823l-26.47-81.465l69.298-50.348
			C303.883,123.77,296.382,100.682,278.34,100.682z"/>
	</g>
	<g>
		<g>
			<circle style="fill:#602904;" cx="205.846" cy="238.582" r="3.69"/>
		</g>
		<g>
			<circle style="fill:#602904;" cx="211.993" cy="246.283" r="3.84"/>
		</g>
		<g>
			<circle style="fill:#602904;" cx="218.139" cy="253.984" r="2.803"/>
		</g>
		<g>
			<circle style="fill:#602904;" cx="224.286" cy="261.685" r="1.727"/>
		</g>
	</g>
	<g>
		<g>
			<circle style="fill:#602904;" cx="243.057" cy="127.152" r="3.69"/>
		</g>
		<g>
			<circle style="fill:#602904;" cx="252.405" cy="124.036" r="3.84"/>
		</g>
		<g>
			<circle style="fill:#602904;" cx="261.752" cy="120.921" r="2.803"/>
		</g>
		<g>
			<circle style="fill:#602904;" cx="271.1" cy="117.805" r="1.727"/>
		</g>
	</g>
	<g>
		<g>
			<circle style="fill:#7F3705;" cx="148.924" cy="64.42" r="3.69"/>
		</g>
		<g>
			<circle style="fill:#7F3705;" cx="148.818" cy="54.567" r="3.84"/>
		</g>
		<g>
			<circle style="fill:#7F3705;" cx="148.712" cy="44.714" r="2.803"/>
		</g>
		<g>
			<circle style="fill:#7F3705;" cx="148.606" cy="34.862" r="1.727"/>
		</g>
	</g>
	<g>
		<g>
			<path style="fill:#602904;" d="M148.924,60.73c-0.087,0-0.169,0.02-0.255,0.026v7.328c0.086,0.006,0.168,0.026,0.255,0.026
				c2.038,0,3.69-1.652,3.69-3.69C152.614,62.382,150.962,60.73,148.924,60.73z"/>
		</g>
		<g>
			<path style="fill:#602904;" d="M148.818,50.727c-0.051,0-0.098,0.013-0.149,0.015v7.65c0.051,0.002,0.098,0.015,0.149,0.015
				c2.121,0,3.84-1.719,3.84-3.84S150.939,50.727,148.818,50.727z"/>
		</g>
		<g>
			<path style="fill:#602904;" d="M148.712,41.912c-0.015,0-0.028,0.004-0.043,0.004v5.597c0.015,0,0.028,0.004,0.043,0.004
				c1.548,0,2.803-1.255,2.803-2.803C151.515,43.167,150.26,41.912,148.712,41.912z"/>
		</g>
		<g>
			<path style="fill:#602904;" d="M150.333,34.862c0-0.932-0.74-1.687-1.664-1.721v3.441
				C149.593,36.549,150.333,35.794,150.333,34.862z"/>
		</g>
	</g>
	<g>
		<path style="fill:#FA961E;" d="M158.241,77.4l14.557,44.802h47.108c9.922,0,14.048,12.697,6.021,18.529l-38.111,27.689
			l14.557,44.802c3.066,9.437-7.735,17.284-15.762,11.452L148.5,196.986l-38.111,27.689c-8.027,5.832-18.828-2.015-15.762-11.452
			l14.557-44.802l-38.111-27.689c-8.027-5.832-3.902-18.529,6.021-18.529h47.108L138.759,77.4
			C141.825,67.963,155.175,67.963,158.241,77.4z"/>
	</g>
	<g>
		<path style="fill:#E28117;" d="M219.907,122.202h-47.108L158.241,77.4c-1.512-4.654-5.525-7.007-9.572-7.071v126.78l37.942,27.567
			c8.027,5.832,18.828-2.015,15.762-11.452l-14.557-44.802l38.111-27.689C233.954,134.899,229.829,122.202,219.907,122.202z"/>
	</g>
	<g>
		<path style="fill:#FAB63B;" d="M154.078,107.79l8.335,25.653h26.973c5.681,0,8.043,7.27,3.447,10.609l-21.821,15.854l8.335,25.653
			c1.756,5.403-4.429,9.896-9.025,6.557L148.5,176.261l-21.821,15.854c-4.596,3.339-10.78-1.154-9.025-6.557l8.335-25.653
			l-21.821-15.854c-4.596-3.339-2.234-10.609,3.447-10.609h26.973l8.335-25.653C144.678,102.387,152.322,102.387,154.078,107.79z"/>
	</g>
	<g>
		<path style="fill:#E29B29;" d="M189.385,133.443h-26.973l-8.335-25.653c-0.857-2.637-3.116-3.977-5.409-4.04v72.634l21.652,15.731
			c4.596,3.339,10.78-1.154,9.025-6.557l-8.335-25.653l21.821-15.854C197.429,140.713,195.067,133.443,189.385,133.443z"/>
	</g>
</g>
</svg>