<svg xmlns="http://www.w3.org/2000/svg" width="900" height="570" viewBox="0 0 900 570"><rect width="900" height="570" rx="34" fill="#E7F7FF"/><path d="M0 510 Q190 445 410 510 T900 490 V570 H0Z" fill="#91D37A"/><rect x="150" y="28" width="600" height="72" rx="36" fill="#FFFFFF" stroke="#E8A020" stroke-width="4"/><text x="450" y="75" text-anchor="middle" direction="rtl" font-family="Tahoma,Arial" font-size="29" font-weight="900" fill="#183B63">من البوابة إلى العجلة</text><rect x="35" y="125" width="250" height="340" rx="28" fill="#FFFFFF" stroke="#2FA866" stroke-width="5"/><path d="M125 330 V205 M125 205 H225 L195 240 H125" fill="#2FA866" stroke="#183B63" stroke-width="7"/><circle cx="160" cy="425" r="24" fill="#183B63"/><text x="160" y="434" text-anchor="middle" font-family="Tahoma,Arial" font-size="22" font-weight="900" fill="#FFFFFF">1</text><text x="160" y="505" text-anchor="middle" direction="rtl" font-family="Tahoma,Arial" font-size="23" font-weight="900" fill="#183B63">ابدأ</text><rect x="325" y="125" width="250" height="340" rx="28" fill="#FFFFFF" stroke="#F28C28" stroke-width="5"/><path d="M520 335 V255 Q520 215 480 215 H380 M380 215 L425 175 M380 215 L425 255" fill="none" stroke="#F28C28" stroke-width="22" stroke-linecap="round" stroke-linejoin="round"/><circle cx="450" cy="425" r="24" fill="#183B63"/><text x="450" y="434" text-anchor="middle" font-family="Tahoma,Arial" font-size="22" font-weight="900" fill="#FFFFFF">2</text><text x="450" y="505" text-anchor="middle" direction="rtl" font-family="Tahoma,Arial" font-size="23" font-weight="900" fill="#183B63">انعطف يسارًا</text><rect x="615" y="125" width="250" height="340" rx="28" fill="#FFFFFF" stroke="#8458D6" stroke-width="5"/>
        <g transform="translate(740,265)">
          <path d="M-45 -80 H5 L65 55" fill="none"
            stroke="#8458D6" stroke-width="22"
            stroke-linecap="round" stroke-linejoin="round"/>
          <path d="M-52 -78 V55 M8 -78 V55"
            stroke="#183B63" stroke-width="10"/>
        </g><circle cx="740" cy="425" r="24" fill="#183B63"/><text x="740" y="434" text-anchor="middle" font-family="Tahoma,Arial" font-size="22" font-weight="900" fill="#FFFFFF">3</text><text x="740" y="505" text-anchor="middle" direction="rtl" font-family="Tahoma,Arial" font-size="23" font-weight="900" fill="#183B63">الوصول</text></svg>