<svg xmlns="http://www.w3.org/2000/svg" width="900" height="570" viewBox="0 0 900 570"><rect width="900" height="570" rx="34" fill="#E7F7FF"/><path d="M0 510 Q190 445 410 510 T900 490 V570 H0Z" fill="#91D37A"/><rect x="150" y="28" width="600" height="72" rx="36" fill="#FFFFFF" stroke="#E8A020" stroke-width="4"/><text x="450" y="75" text-anchor="middle" direction="rtl" font-family="Tahoma,Arial" font-size="29" font-weight="900" fill="#183B63">دورة تنفس صحيحة</text><rect x="35" y="125" width="250" height="340" rx="28" fill="#FFFFFF" stroke="#2FA866" stroke-width="5"/><circle cx="160" cy="255" r="72" fill="#F2C29B"/><path d="M40 250 C90 220 135 220 152 248" fill="none" stroke="#2FA866" stroke-width="16"/><path d="M152 248 L118 225 M152 248 L115 265" stroke="#2FA866" stroke-width="13"/><circle cx="160" cy="425" r="24" fill="#183B63"/><text x="160" y="434" text-anchor="middle" font-family="Tahoma,Arial" font-size="22" font-weight="900" fill="#FFFFFF">1</text><text x="160" y="505" text-anchor="middle" direction="rtl" font-family="Tahoma,Arial" font-size="23" font-weight="900" fill="#183B63">شهيق</text><rect x="325" y="125" width="250" height="340" rx="28" fill="#FFFFFF" stroke="#3B82F6" stroke-width="5"/>
      <g>
        <circle cx="450" cy="195" r="62" fill="#F2C29B"/>
        <path d="M395 172 Q450 115 505 172"
          fill="#8B5E3C"/>
        <circle cx="428" cy="188" r="6" fill="#183B63"/>
        <circle cx="472" cy="188" r="6" fill="#183B63"/>
        <path d="M432 222 Q450 235 468 222"
          fill="none" stroke="#183B63" stroke-width="5"/>
        <rect x="386" y="258" width="128" height="150"
          rx="42" fill="#3B82F6"/>
        <path d="M402 285 L368 365 M498 285 L532 365" stroke="#F2C29B" stroke-width="22" stroke-linecap="round"/>
        <path d="M422 395 V475 M478 395 V475" stroke="#183B63" stroke-width="22" stroke-linecap="round"/>
      </g>
    <circle cx="450" cy="425" r="24" fill="#183B63"/><text x="450" y="434" text-anchor="middle" font-family="Tahoma,Arial" font-size="22" font-weight="900" fill="#FFFFFF">2</text><text x="450" y="505" text-anchor="middle" direction="rtl" font-family="Tahoma,Arial" font-size="23" font-weight="900" fill="#183B63">هدوء قصير</text><rect x="615" y="125" width="250" height="340" rx="28" fill="#FFFFFF" stroke="#F28C28" stroke-width="5"/><circle cx="740" cy="255" r="72" fill="#F2C29B"/><path d="M760 280 C810 300 845 285 865 265" fill="none" stroke="#F28C28" stroke-width="16"/><path d="M865 265 L832 255 M865 265 L840 292" stroke="#F28C28" stroke-width="13"/><circle cx="740" cy="425" r="24" fill="#183B63"/><text x="740" y="434" text-anchor="middle" font-family="Tahoma,Arial" font-size="22" font-weight="900" fill="#FFFFFF">3</text><text x="740" y="505" text-anchor="middle" direction="rtl" font-family="Tahoma,Arial" font-size="23" font-weight="900" fill="#183B63">زفير</text></svg>